<svg xmlns="http://www.w3.org/2000/svg" viewBox="0 0 40 40"><path fill="#4788c7" d="M15 35H32V36H15z"></path><path fill="#b6dcfe" d="M32.5,33C32.5,18.939,21.061,7.5,7,7.5H5.079c3.69-4.142,8.34-6,14.921-6 c9.683,0,18.5,8.817,18.5,18.5c0,7.957-3.719,12.718-6,14.888V33z"></path><path fill="#4788c7" d="M20,2c9.421,0,18,8.579,18,18c0,6.849-2.812,11.264-5,13.662V33C33,18.664,21.336,7,7,7H6.241 C9.704,3.557,14.038,2,20,2 M20,1C11.857,1,7.319,3.884,4,8c1.707,0,1.375,0,3,0c13.855,0,25,11.078,25,25c0,0.658,0,1.889,0,3 c3.157-2.607,7-7.9,7-16C39,10.001,29.999,1,20,1L20,1z"></path><path fill="#dff0fe" d="M13 24.5A2.5 2.5 0 1 0 13 29.5A2.5 2.5 0 1 0 13 24.5Z"></path><path fill="#4788c7" d="M13 25c1.103 0 2 .897 2 2s-.897 2-2 2-2-.897-2-2S11.897 25 13 25M13 24c-1.657 0-3 1.342-3 3s1.343 3 3 3 3-1.342 3-3S14.657 24 13 24L13 24zM4 8H5V25H4z"></path><path fill="none" stroke="#4788c7" stroke-miterlimit="10" d="M33 7L25 15M30.861 24.947L38.195 22.362M28.597 19.542L37.002 13.957M26 3L20.516 11.408M17.913 1.43L15.155 9.19"></path><g><path fill="#98ccfd" d="M5.633,38.5c-0.592,0-1.147-0.23-1.565-0.648l-1.919-1.919c-0.863-0.863-0.863-2.268,0-3.132 l2.27-2.269l0.175-0.237l0.237-0.344l-0.891-0.891C3.66,28.781,3.5,28.395,3.5,28v-5c0-0.827,0.673-1.5,1.5-1.5s1.5,0.673,1.5,1.5 v4.379l6.121,6.121H17c0.827,0,1.5,0.673,1.5,1.5s-0.673,1.5-1.5,1.5h-5c-0.395,0-0.781-0.16-1.061-0.439l-0.891-0.891 l-0.513,0.354l-2.337,2.327C6.781,38.27,6.225,38.5,5.633,38.5z"></path><path fill="#4788c7" d="M5,22c0.551,0,1,0.449,1,1v4.172v0.414l0.293,0.293l5.828,5.828L12.414,34h0.414H17 c0.551,0,1,0.449,1,1s-0.449,1-1,1h-5c-0.263,0-0.521-0.107-0.707-0.293l-0.596-0.596l-0.592-0.592l-0.687,0.479L9.25,35.115 l-0.073,0.051l-0.063,0.063l-2.269,2.269C6.521,37.822,6.091,38,5.633,38s-0.888-0.178-1.212-0.502l-1.919-1.919 C2.178,35.255,2,34.825,2,34.367s0.178-0.888,0.502-1.212l2.269-2.269l0.063-0.063l0.051-0.073l0.118-0.169l0.479-0.687 l-0.592-0.592l-0.596-0.596C4.107,28.521,4,28.263,4,28v-5C4,22.449,4.449,22,5,22 M5,21c-1.104,0-2,0.896-2,2v5 c0,0.53,0.211,1.039,0.586,1.414l0.596,0.596l-0.118,0.169l-2.269,2.269c-1.06,1.06-1.06,2.779,0,3.839l1.919,1.919 C4.244,38.735,4.938,39,5.633,39s1.389-0.265,1.919-0.795l2.269-2.269l0.169-0.118l0.596,0.596C10.961,36.789,11.47,37,12,37h5 c1.104,0,2-0.896,2-2s-0.896-2-2-2h-4.172L7,27.172V23C7,21.896,6.104,21,5,21L5,21z"></path></g></svg>