<?xml version="1.0" encoding="UTF-8"?> <svg xmlns="http://www.w3.org/2000/svg" width="150" height="150" viewBox="0 0 150 150" fill="none"> <path fill-rule="evenodd" clip-rule="evenodd" d="M33.2935 25.1458C38.9753 24.4165 44.637 26.9159 47.3416 32.0412C52.2209 40.7578 46.4207 52.1667 36.4485 53.221C34.7558 53.4 31.9187 53.1865 29.1125 51.9571C26.2929 50.7218 23.4919 48.4538 21.9357 44.5266C18.8889 36.8378 22.771 26.4962 33.2935 25.1458ZM51.2789 21.5818L46.1546 26.4894L48.783 29.5866L54.5786 25.2912L51.2789 21.5818ZM39.4867 14L37.6069 22.9576L41.4569 24.0067L43.9617 15.0969L39.4867 14ZM29.5156 16.0523L24.7215 17.4247L27.9879 23.7577L31.7621 22.5483L29.5156 16.0523ZM15.7617 21.782L13.3073 26.1039L21.2515 30.8293L23.2012 27.1953L15.7617 21.782ZM11.6093 41.7394L18.8014 41.1515L18.4604 37.176L11.4869 36.6212L11.6093 41.7394ZM16.76 57.8302L23.5617 51.3211L20.9672 48.2018L13.6438 53.6294L16.76 57.8302ZM30.013 64.2259L32.0884 55.3123L28.2624 54.1775L25.5632 63.0294L30.013 64.2259ZM40.0265 62.3965L44.8497 61.1314L41.7227 54.7272L37.9229 55.852L40.0265 62.3965ZM53.9025 56.9752L56.451 52.7089L48.6123 47.8075L46.5834 51.3973L53.9025 56.9752ZM58.4909 37.1153L51.2876 37.5425L51.5415 41.5247L58.5012 42.235L58.4909 37.1153ZM89.4779 49.9059L101.251 51.4011L104.949 22.4401C102.247 23.3965 99.4229 25.7707 96.9486 29.6035C93.4065 34.7722 90.8267 42.0239 89.4779 49.9059ZM110.8 23.0418C117.13 26.9225 119.981 40.7386 119.057 53.609L107.138 52.1488L110.8 23.0418ZM101.263 98.456C114.844 103.429 125.828 112.318 131.85 123.715C134.204 122.619 136.329 121.051 138.021 119.019L142.021 122.629C135.441 136.629 115.471 136.169 107.561 128.469C102.111 135.609 82.561 135.939 75.951 129.029C69.406 136.559 51.222 136.063 44.57 129.109C38.39 136.219 16.98 137.019 10 123.429L14.12 118.809C15.4494 120.862 17.2421 122.522 19.3104 123.761C37.1469 97.5617 60.426 94.1088 75.5 94.1088C78.8 94.1088 82.1 94.2588 85.25 94.7088L91.25 95.6088C92.7288 95.9159 94.187 96.2662 95.6219 96.6582L100.504 57.2879L103.374 57.6792L106.39 58.0355L101.502 97.4632C101.421 97.8093 101.342 98.1401 101.263 98.456ZM94.1724 23.1737C89.1307 29.1648 85.1504 38.295 83.4453 49.1933L71.5259 47.733C74.2231 35.8255 82.97 26.6319 94.1724 23.1737ZM136.863 55.8169C137.344 43.6699 130.974 32.5488 121.027 26.4505C122.206 28.7902 123.162 31.4916 123.862 34.4089C125.261 40.2434 125.779 46.9063 125.09 54.3216L136.863 55.8169Z" fill="black"></path> </svg> 