<?xml version="1.0" encoding="UTF-8"?> <svg xmlns="http://www.w3.org/2000/svg" width="150" height="150" viewBox="0 0 150 150" fill="none"> <path fill-rule="evenodd" clip-rule="evenodd" d="M115.15 119.296C88.34 119.296 84.05 87.2572 99.64 74.6574C98.72 72.6988 97.7601 70.625 96.7601 68.4989L78.07 98.3593L35.55 97.8461L32.86 93.7823L43 78.6269C41.1722 77.9891 39.2566 77.6706 37.33 77.6843C16.16 77.6843 15.14 111.2 37.69 111.2C43.96 111.2 48.32 108.058 50.77 103.753L59.21 104.099C56.21 112.562 49.14 119.254 37.96 119.254C4.58004 119.254 6.10004 69.5881 37.43 69.5881C40.9224 69.5362 44.3865 70.2497 47.6 71.6829L55.35 60.078L52.08 53.6786L42.63 55.0611C39.2 50.2432 44.96 42.786 51.63 43.6867C54.63 44.0952 67.63 45.3101 67.63 45.3101L68.06 51.3534L59 52.715L60.91 56.6112L91 56.1609C88.49 50.7564 86.21 45.8652 84.72 42.6393C81.48 35.6534 91.01 34.1871 94.82 38.209L92.82 45.1635C92.82 45.1635 107.23 75.9457 111.55 84.5445C112.55 86.4403 116.04 90.724 119.26 92.2846L116.69 97.2596C110.21 95.2172 107 90.2632 104 83.979C103.74 83.4343 103.46 82.8478 103.17 82.2194C94.17 91.3315 97.56 111.116 114.84 111.116C135.34 111.116 135.47 77.7262 114.48 77.7262H113.91L111.15 69.7871C112.285 69.6435 113.427 69.57 114.57 69.5672C145.83 69.63 145.63 119.296 115.15 119.296ZM48.48 82.1775L41.12 92.3579L53 92.2532C52.6128 88.4593 51.0212 84.9114 48.48 82.1775V82.1775ZM59.1 67.5143L53.25 75.6C57.6614 79.9585 60.3338 85.9046 60.73 92.2427L71.73 92.1589L59.1 67.5143ZM64.48 63.9009L76.66 88.755L92.6601 63.1363L64.48 63.9009Z" fill="black"></path> </svg> 