<?xml version="1.0" encoding="UTF-8"?> <svg xmlns="http://www.w3.org/2000/svg" width="150" height="150" viewBox="0 0 150 150" fill="none"> <path fill-rule="evenodd" clip-rule="evenodd" d="M37.07 120.24L42.21 110.67C42.21 94.95 42.43 82.67 42.43 70.56C42.43 53.31 57.99 44.5 73.93 44.09L76.63 65.81L81.89 65L78.82 44.23C79.28 44.23 79.73 44.31 80.18 44.37L86.69 57.51L91.12 55.38L85.46 45.3C97.71 48.3 107.8 56.71 107.8 70.59C107.8 82.35 108.14 98.67 108.14 112.76L112.93 121.39C98.56 128.19 47.6 127.21 37.07 120.24ZM93.87 90.06C89.07 85.63 80.31 85.06 80.31 85.06L77.31 75.06L70.45 81.06C68.29 80.73 63.64 81.39 61.96 82.35L53.49 78.5L54.75 92.35C65.21 89.13 73.49 92.22 75.92 95.84C75.74 96.06 73.35 98.51 73.01 98.84C71.28 97.18 68.42 96.37 65.29 96.37C57.84 96.37 54.29 99.44 54.29 105.19C54.29 111.48 60.79 116.27 76.17 116.27C97.8 116.27 98.39 103.87 98.39 100.99C98.4202 98.9564 98.0349 96.9381 97.2577 95.0586C96.4805 93.1792 95.3277 91.4782 93.87 90.06ZM66.42 39.42L60.52 30.86L68.9 26.86L67.2 20.11L88.67 22.5L83.07 39.2L66.42 39.42Z" fill="black"></path> </svg> 