<?xml version="1.0" encoding="UTF-8"?> <svg xmlns="http://www.w3.org/2000/svg" width="150" height="150" viewBox="0 0 150 150" fill="none"> <path fill-rule="evenodd" clip-rule="evenodd" d="M96.8748 58.4759L96.8652 50.4725C96.8751 43.9017 93.752 37.7172 88.4529 33.8139C81.566 28.7411 72.2614 28.4162 65.0374 32.9962C59.4788 36.5204 55.932 42.4719 55.4835 49.0274L53.0264 83.5689C50.4753 85.0246 47.9675 86.4521 45.52 87.84L39.78 85.31L19 97.11L27.46 112.11L48.73 99.84L49.08 93L102.99 61.38L109.26 64.65L131.26 52L122.51 37.14L101.13 49.58L100.38 56.49C99.2244 57.1434 98.0554 57.8058 96.8748 58.4759ZM67.8665 75.0717C69.0604 74.3867 70.2566 73.7002 71.4534 73.0134C75.1661 70.8828 78.8852 68.7486 82.5642 66.6414L82.3263 50.4483C82.3293 48.4892 81.3982 46.6454 79.8183 45.4816C77.765 43.9692 74.9908 43.8723 72.8371 45.2378C71.1798 46.2885 70.1223 48.0629 69.9886 50.0174L67.8665 75.0717Z" fill="black"></path> <path d="M52.0631 97.1103L66.7283 88.5087L66.6819 89.0568C66.3754 93.5362 70.0076 97.3843 74.5054 97.5414C79.0033 97.6984 82.895 94.1131 82.9018 89.6232L82.7474 79.113L96.8896 70.8181L96.9246 99.8838C96.9055 112.573 86.3731 122.173 73.4863 126.726C60.9485 121.285 51.1114 110.974 51.9775 98.3142L52.0631 97.1103Z" fill="black"></path> </svg> 