<?xml version="1.0" encoding="UTF-8"?> <svg xmlns="http://www.w3.org/2000/svg" width="150" height="150" viewBox="0 0 150 150" fill="none"> <path fill-rule="evenodd" clip-rule="evenodd" d="M108.67 70.3C108.32 72.37 107.4 74.69 104.41 74.79C99.22 74.98 87.73 75.08 87.73 75.08L80.12 67.2L76.9 80.1L89.72 96.5L89 124.6C89 124.6 80.77 126.83 80.5 119.6C80.23 112.37 79.42 100.84 79.42 100.84L65.61 88.84C61.01 84.84 56.86 82.23 58.61 75.29C60.3 68.6 61.79 62.49 63.24 56.57C64.9 49.7 73.77 47.74 81.82 50L94.09 65.21L103.59 66.28L105.29 54.73L111.29 54.17C111.29 54.17 109 68.24 108.67 70.3ZM74.59 37.3C73.18 26.08 91.36 23.85 91.36 36.45C91.36 49.21 75.94 48.09 74.59 37.29V37.3ZM38.32 75.85C38.32 75.85 38.92 73.62 39.82 70.22L35.53 65.08C35.53 65.08 38.88 48.91 40.25 43C41.09 39.31 45.16 38.76 48.13 38.88C50.13 27.31 64.28 34.34 64.28 34.34C64.28 34.34 58.09 58 54.89 72C52 84.79 38.32 75.85 38.32 75.85ZM57.59 88.62L67.29 96.62L57.77 124.85C57.77 124.85 48.19 125.6 49.91 118.6C52.54 107.85 57.59 88.62 57.59 88.62ZM107.4 78.43L102.4 109.68L106.97 115.08L104.77 118.26L101.46 115.55L99.91 125.13L95 124.48L101.72 79L107.4 78.43Z" fill="black"></path> </svg> 