<?xml version="1.0" encoding="UTF-8"?> <svg xmlns="http://www.w3.org/2000/svg" width="150" height="150" viewBox="0 0 150 150" fill="none"> <path fill-rule="evenodd" clip-rule="evenodd" d="M102.86 58.8C97.41 65.94 77.86 66.27 71.25 59.36C65.06 66.47 43.66 67.28 36.68 53.68L40.84 49.09C47.05 58.68 63.37 59.71 70.66 49.09C71.1214 49.0356 71.5854 49.0055 72.05 49C77.83 58.71 96.48 59 101.76 49C102.07 49 103.49 49 103.49 49C110.49 58.3 126.01 58.24 133.36 49.41L137.36 53.02C130.74 66.92 110.77 66.5 102.86 58.8ZM43.05 71.03C48.83 80.74 67.48 81.03 72.76 70.97H74.49C81.49 80.27 97.01 80.21 104.36 71.38L108.36 74.99C101.78 88.99 81.81 88.53 73.9 80.83C68.45 87.97 48.9 88.3 42.29 81.39C36.11 88.5 14.7 89.3 7.71997 75.71L11.84 71.09C18.05 80.68 34.37 81.71 41.66 71.09C42.1219 71.0456 42.5859 71.0255 43.05 71.03ZM60.66 93.09C61.1214 93.0356 61.5854 93.0055 62.05 93C67.83 102.71 86.48 103 91.76 92.95C92.07 92.95 93.49 92.95 93.49 92.95C100.49 102.25 116.01 102.19 123.36 93.36L127.36 96.97C120.78 110.97 100.81 110.51 92.9 102.81C87.45 109.95 67.9 110.28 61.29 103.37C55.11 110.48 33.7 111.29 26.72 97.69L30.84 93.09C37.05 102.71 53.37 103.74 60.66 93.09Z" fill="black"></path> </svg> 