<svg width="48" height="48" viewBox="0 0 48 48" fill="none" xmlns="http://www.w3.org/2000/svg">
<path d="M48 24C48 37.2548 37.2548 48 24 48C10.7452 48 0 37.2548 0 24C0 10.7452 10.7452 0 24 0C37.2548 0 48 10.7452 48 24Z" fill="#F4DD0B"/>
<path fill-rule="evenodd" clip-rule="evenodd" d="M29.3183 17.0496L15.3761 22.5826C13.066 23.4993 11.9365 26.1151 12.8533 28.4251C13.77 30.7352 16.3858 31.8647 18.6958 30.9479L32.6381 25.415C34.9481 24.4982 36.0776 21.8824 35.1609 19.5724C34.2441 17.2624 31.6283 16.1329 29.3183 17.0496ZM13.9006 18.8647C9.53722 20.5963 7.40374 25.5372 9.13535 29.9006C10.867 34.264 15.8079 36.3975 20.1713 34.6659L34.1136 29.1329C38.4769 27.4013 40.6104 22.4603 38.8788 18.0969C37.1472 13.7336 32.2062 11.6001 27.8429 13.3317L13.9006 18.8647Z" fill="black"/>
<path fill-rule="evenodd" clip-rule="evenodd" d="M22 41L22 8L26 8L26 41L22 41Z" fill="black"/>
</svg>
