<?xml version="1.0" encoding="UTF-8"?> <svg xmlns="http://www.w3.org/2000/svg" width="362" height="131" viewBox="0 0 362 131" fill="none"> <path fill-rule="evenodd" clip-rule="evenodd" d="M280 0H272V18.572L253.801 23.4482C242.865 26.3785 236.375 37.6195 239.306 48.5555C242.236 59.4916 253.477 65.9815 264.413 63.0512L272 61.0183V75H280V58.8747L298.22 53.9925C309.157 51.0622 315.646 39.8213 312.716 28.8853C309.786 17.9492 298.545 11.4593 287.609 14.3896L280 16.4284V0ZM272 30.9953L256.907 35.0393C252.373 36.2544 249.682 40.9152 250.897 45.4497C252.112 49.9841 256.773 52.6751 261.307 51.4601L272 48.595V30.9953ZM280 46.4514V28.8517L290.715 25.9807C295.249 24.7657 299.91 27.4566 301.125 31.9911C302.34 36.5256 299.649 41.1864 295.115 42.4014L280 46.4514Z" fill="white"></path> <path d="M0 62.8934H12.032V29.6134H28.928V62.8934H40.96V18.0934H0V62.8934Z" fill="white"></path> <path fill-rule="evenodd" clip-rule="evenodd" d="M47.892 62.8934H60.436L63.188 54.5734H80.852L83.668 62.8934H96.468L80.02 18.0934H64.34L47.892 62.8934ZM66.26 44.9734L71.764 28.4614H72.276L77.78 44.9734H66.26Z" fill="white"></path> <path d="M115.279 62.8934H103.375V18.0934H115.279V34.7334H121.359L132.239 18.0934H145.359L131.471 39.5334L146.575 62.8934H132.175L121.295 46.2534H115.279V62.8934Z" fill="white"></path> <path fill-rule="evenodd" clip-rule="evenodd" d="M153.125 62.8934H164.965V47.9814H172.261C183.461 47.9814 190.309 42.2854 190.309 33.0694C190.309 23.7254 183.461 18.0934 172.261 18.0934H153.125V62.8934ZM164.965 38.5734V28.4614H172.389C175.973 28.4614 178.277 30.5094 178.277 33.5174C178.277 36.5254 175.973 38.5734 172.389 38.5734H164.965Z" fill="white"></path> <path fill-rule="evenodd" clip-rule="evenodd" d="M202.624 62.8934H190.079L206.528 18.0934H222.208L238.656 62.8934H225.856L223.04 54.5734H205.376L202.624 62.8934ZM213.952 28.4614L208.448 44.9734H219.968L214.464 28.4614H213.952Z" fill="white"></path> <path d="M334.023 62.8934H346.055V29.6774H361.671V18.0934H318.407V29.6774H334.023V62.8934Z" fill="white"></path> <path fill-rule="evenodd" clip-rule="evenodd" d="M50.771 130.44H41.875V85.64H50.003V89.288C52.563 86.6 56.019 85 60.115 85C69.331 85 76.115 92.104 76.115 101.64C76.115 111.176 69.331 118.28 60.115 118.28C56.467 118.28 53.203 116.936 50.771 114.632V130.44ZM50.579 101.64C50.579 106.44 54.099 110.088 58.771 110.088C63.443 110.088 67.027 106.44 67.027 101.64C67.027 96.84 63.443 93.192 58.771 93.192C54.099 93.192 50.579 96.84 50.579 101.64Z" fill="white"></path> <path d="M8.896 117.64H0V85.64H31.36V117.64H22.464V93.896H8.896V117.64Z" fill="white"></path> <path fill-rule="evenodd" clip-rule="evenodd" d="M98.9075 118.28C108.892 118.28 116.443 111.112 116.443 101.64C116.443 92.104 108.956 85 98.9075 85C88.8595 85 81.3715 92.104 81.3715 101.64C81.3715 111.176 88.8595 118.28 98.9075 118.28ZM98.9075 110.088C94.0435 110.088 90.4595 106.568 90.4595 101.64C90.4595 96.712 93.9795 93.192 98.9075 93.192C103.771 93.192 107.355 96.712 107.355 101.64C107.355 106.568 103.771 110.088 98.9075 110.088Z" fill="white"></path> <path d="M132.958 117.64H124.062V85.64H132.958V97.48H137.118L145.887 85.64H155.743L144.286 101L156.382 117.64H145.758L136.99 105.736H132.958V117.64Z" fill="white"></path> <path fill-rule="evenodd" clip-rule="evenodd" d="M169.247 118.344C174.239 118.344 178.911 116.552 181.599 113.672V117.704L192.735 117.64V109.832H189.023V98.056C189.023 90.12 183.583 85 175.007 85C166.623 85 160.671 89.608 159.647 96.776H167.967C168.671 93.832 171.103 92.104 174.623 92.104C178.015 92.104 180.511 93.768 180.511 96.072C180.511 97.8 178.783 98.568 174.367 98.888C163.743 99.528 158.239 102.984 158.239 109.32C158.239 114.888 162.399 118.344 169.247 118.344ZM171.359 111.496C168.735 111.496 167.263 110.408 167.263 108.424C167.263 106.12 169.311 104.776 174.815 104.328C177.695 104.072 180.191 103.368 180.895 102.792V103.176C180.895 107.592 176.415 111.496 171.359 111.496Z" fill="white"></path> <path d="M215.66 117.64H206.764V94.024H194.667V85.64H227.82V94.024H215.66V117.64Z" fill="white"></path> </svg> 